#!OML:ASF G:\JayActor3\Patient Classification 1\Patient 1\Session 2\male.ASF
:FULLY-SPECIFIED
:DEGREES
2255
root 48.9853 16.4693 -6.94869 1629.32 -101.726 -548.894
lowerback -2.87538 0.335278 0.642471
upperback -4.01682 0.379223 0.207677
thorax -2.5083 0.147611 -0.14307
lowerneck -7.02537 -11.3381 -12.0912
upperneck 2.04735 -15.0168 14.693
head 3.80882 -7.19038 5.37562
rclavicle 8.39865e-015 9.14409e-015
rhumerus -60.1006 33.4016 -111.38
rradius 101.742
rwrist -12.36
rhand -11.7509 15.539
rfingers 7.12502
rthumb 14.297 -13.9488
lclavicle 8.39865e-015 9.14409e-015
lhumerus -39.4332 -32.2899 93.0529
lradius 134.757
lwrist 35.6672
lhand -1.57744 11.0663
lfingers 7.12502
lthumb 24.0786 39.5756
rfemur -6.61406 1.4503 23.4091
rtibia 37.2338
rfoot -28.8851 -7.64889
rtoes 15.0989
lfemur -1.48597 5.87616 -21.8703
ltibia 25.1362
lfoot -18.5185 0.246328
ltoes -6.3059
2256
root 48.9811 16.4683 -6.93234 1629.37 -101.411 -548.974
lowerback -2.86678 0.260868 0.638283
upperback -4.01291 0.280724 0.259288
thorax -2.51006 0.0991528 -0.0884011
lowerneck -7.07862 -11.3155 -12.0264
upperneck 2.08541 -14.9795 14.5747
head 3.80865 -7.1716 5.33088
rclavicle -1.69464e-014 -4.17448e-015
rhumerus -60.0913 33.2803 -111.332
rradius 101.766
rwrist -12.3427
rhand -11.5966 15.5091
rfingers 7.12502
rthumb 14.4457 -13.9681
lclavicle -1.69464e-014 -4.17448e-015
lhumerus -39.153 -32.2589 93.0126
lradius 134.882
lwrist 35.7241
lhand -1.52242 11.0799
lfingers 7.12502
lthumb 24.1314 39.5821
rfemur -6.7852 1.5738 23.2823
rtibia 37.6067
rfoot -28.7625 -7.48647
rtoes 14.6038
lfemur -1.35065 6.03252 -21.9727
ltibia 25.0381
lfoot -18.5324 0.329191
ltoes -6.17387
2257
root 48.9777 16.4667 -6.91605 1629.41 -101.084 -549.045
lowerback -2.83883 0.189297 0.629193
upperback -4.00794 0.186329 0.308604
thorax -2.52138 0.0528811 -0.0333389
lowerneck -7.11547 -11.3008 -11.9408
upperneck 2.1198 -14.9534 14.4281
head 3.80221 -7.15967 5.27428
rclavicle 2.45748e-014 9.93923e-017
rhumerus -60.0858 33.1632 -111.291
rradius 101.786
rwrist -12.3801
rhand -11.4436 15.4614
rfingers 7.12502
rthumb 14.5931 -14.0052
lclavicle 2.45748e-014 9.93923e-017
lhumerus -38.8802 -32.2185 92.9733
lradius 135.004
lwrist 35.8004
lhand -1.45459 11.0907
lfingers 7.12502
lthumb 24.1964 39.5844
rfemur -6.9789 1.69674 23.1485
rtibia 38.0284
rfoot -28.6303 -7.30785
rtoes 14.1098
lfemur -1.2144 6.20521 -22.0802
ltibia 24.9499
lfoot -18.5502 0.425147
ltoes -6.07143
2258
root 48.9752 16.4646 -6.89996 1629.39 -100.744 -549.058
lowerback -2.79137 0.120257 0.602932
upperback -4.00071 0.0957676 0.354514
thorax -2.54112 0.00901046 0.0279173
lowerneck -7.14397 -11.292 -11.8581
upperneck 2.15996 -14.9363 14.2774
head 3.79721 -7.15255 5.21621
rclavicle 9.96408e-015 2.88238e-015
rhumerus -60.0822 33.0553 -111.252
rradius 101.807
rwrist -12.4698
rhand -11.2786 15.4017
rfingers 7.12502
rthumb 14.7521 -14.0533
lclavicle 9.96408e-015 2.88238e-015
lhumerus -38.6142 -32.1708 92.9321
lradius 135.131
lwrist 35.8986
lhand -1.38637 11.101
lfingers 7.12502
lthumb 24.2618 39.5859
rfemur -7.2026 1.81743 22.9986
rtibia 38.5071
rfoot -28.4894 -7.11819
rtoes 13.6058
lfemur -1.07847 6.39262 -22.2028
ltibia 24.8684
lfoot -18.5689 0.536622
ltoes -6.01612
2259
root 48.9737 16.4619 -6.88417 1629.27 -100.394 -548.985
lowerback -2.72227 0.0531387 0.554131
upperback -3.99092 0.00827161 0.396033
thorax -2.57012 -0.0326885 0.0974238
lowerneck -7.17235 -11.2886 -11.7982
upperneck 2.21204 -14.9275 14.1474
head 3.8004 -7.14899 5.16657
rclavicle -3.68994e-015 -3.08116e-015
rhumerus -60.0822 32.9597 -111.22
rradius 101.826
rwrist -12.5503
rhand -11.1526 15.3306
rfingers 7.12502
rthumb 14.8735 -14.1155
lclavicle -3.68994e-015 -3.08116e-015
lhumerus -38.3562 -32.1183 92.8826
lradius 135.266
lwrist 36.0247
lhand -1.32488 11.0952
lfingers 7.12502
lthumb 24.3208 39.5723
rfemur -7.46267 1.93556 22.8292
rtibia 39.0517
rfoot -28.3388 -6.92003
rtoes 13.0793
lfemur -0.941576 6.59274 -22.3433
ltibia 24.79
lfoot -18.5916 0.65577
ltoes -5.97072
2260
root 48.9732 16.4583 -6.86874 1629 -100.034 -548.768
lowerback -2.63356 -0.0137237 0.473571
upperback -3.97552 -0.0783749 0.430867
thorax -2.60402 -0.0730424 0.178041
lowerneck -7.20626 -11.2913 -11.767
upperneck 2.27454 -14.9276 14.0469
head 3.81349 -7.14886 5.12854
rclavicle -8.80865e-015 -4.82053e-015
rhumerus -60.0777 32.8826 -111.193
rradius 101.847
rwrist -12.6109
rhand -11.0495 15.2519
rfingers 7.12502
rthumb 14.9728 -14.1868
lclavicle -8.80865e-015 -4.82053e-015
lhumerus -38.0877 -32.0628 92.8212
lradius 135.407
lwrist 36.1732
lhand -1.27112 11.092
lfingers 7.12502
lthumb 24.3723 39.5621
rfemur -7.76398 2.04782 22.6322
rtibia 39.6704
rfoot -28.1829 -6.71119
rtoes 12.5456
lfemur -0.801157 6.80689 -22.5087
ltibia 24.7094
lfoot -18.6173 0.770979
ltoes -5.91561
2261
root 48.9737 16.4539 -6.85354 1628.58 -99.6595 -548.399
lowerback -2.52866 -0.07614 0.365164
upperback -3.95665 -0.158895 0.456032
thorax -2.64308 -0.109591 0.264576
lowerneck -7.24488 -11.3003 -11.7751
upperneck 2.35247 -14.938 13.9929
head 3.84029 -7.15254 5.10849
rclavicle -1.66172e-014 4.32357e-015
rhumerus -60.0652 32.8199 -111.17
rradius 101.874
rwrist -12.6402
rhand -10.952 15.1711
rfingers 7.12502
rthumb 15.0668 -14.2606
lclavicle -1.66172e-014 4.32357e-015
lhumerus -37.8097 -32.0079 92.7421
lradius 135.558
lwrist 36.3514
lhand -1.22253 11.0942
lfingers 7.12502
lthumb 24.4189 39.558
rfemur -8.11842 2.15426 22.4059
rtibia 40.3706
rfoot -28.0104 -6.49339
rtoes 11.9802
lfemur -0.661093 7.03699 -22.7003
ltibia 24.6226
lfoot -18.6468 0.885837
ltoes -5.8482
